<svg xmlns="http://www.w3.org/2000/svg" xmlns:xlink="http://www.w3.org/1999/xlink" width="500" zoomAndPan="magnify" viewBox="0 0 375 374.999991" height="500" preserveAspectRatio="xMidYMid meet" version="1.0"><defs><g/><clipPath id="ee08239097"><rect x="0" width="326" y="0" height="44"/></clipPath><clipPath id="abdc9b340d"><rect x="0" width="274" y="0" height="13"/></clipPath><clipPath id="3f7fc833df"><path d="M 144.429688 74.714844 L 230.585938 74.714844 L 230.585938 199.214844 L 144.429688 199.214844 Z M 144.429688 74.714844 " clip-rule="nonzero"/></clipPath><clipPath id="c238156ee8"><path d="M 185.929688 99.3125 L 185.554688 98.746094 C 183.105469 95.066406 179.785156 90.082031 179.785156 85.089844 C 179.785156 84.929688 179.785156 84.765625 179.792969 84.609375 C 165.039062 102.984375 146.988281 126.777344 146.988281 149.488281 C 146.988281 162.738281 151.546875 174.722656 158.917969 183.386719 C 159.210938 183.726562 159.503906 184.058594 159.800781 184.390625 C 155.183594 177.609375 152.429688 169.078125 152.429688 159.820312 C 152.429688 139.882812 169.339844 119.421875 181.828125 104.308594 C 183.292969 102.53125 184.703125 100.828125 185.929688 99.3125 M 195.222656 84.609375 C 195.230469 84.769531 195.230469 84.929688 195.230469 85.09375 C 195.230469 90.082031 191.910156 95.066406 189.460938 98.746094 L 189.082031 99.316406 C 190.3125 100.832031 191.722656 102.535156 193.1875 104.3125 C 205.675781 119.425781 222.585938 139.886719 222.585938 159.824219 C 222.585938 169.078125 219.832031 177.609375 215.214844 184.390625 C 215.511719 184.058594 215.804688 183.726562 216.09375 183.390625 C 223.464844 174.722656 228.027344 162.742188 228.027344 149.488281 C 228.027344 126.777344 209.976562 102.984375 195.222656 84.609375 Z M 192.675781 85.09375 C 192.675781 82.988281 192.128906 81.085938 191.234375 79.660156 L 190.207031 78.390625 C 189.488281 77.707031 188.660156 77.28125 187.777344 77.207031 L 187.757812 77.203125 L 187.734375 77.203125 L 187.710938 77.199219 L 187.695312 77.195312 L 187.667969 77.195312 C 187.628906 77.195312 187.589844 77.195312 187.554688 77.195312 L 187.464844 77.195312 C 187.425781 77.195312 187.390625 77.195312 187.351562 77.195312 L 187.324219 77.195312 L 187.285156 77.203125 L 187.257812 77.203125 C 186.371094 77.273438 185.535156 77.699219 184.808594 78.386719 L 183.78125 79.660156 C 182.886719 81.085938 182.34375 82.988281 182.34375 85.089844 C 182.34375 89.21875 185.265625 93.703125 187.511719 97.078125 C 189.753906 93.707031 192.675781 89.222656 192.675781 85.09375 Z M 191.359375 115.363281 C 190.402344 113.367188 189.082031 111.660156 187.507812 110.378906 C 185.929688 111.660156 184.613281 113.367188 183.652344 115.363281 C 182.582031 117.605469 181.964844 120.21875 181.964844 123.019531 C 181.964844 125.820312 182.582031 128.433594 183.652344 130.671875 C 184.609375 132.671875 185.929688 134.375 187.507812 135.65625 C 189.082031 134.375 190.402344 132.671875 191.359375 130.671875 C 192.429688 128.433594 193.046875 125.816406 193.046875 123.019531 C 193.046875 120.21875 192.433594 117.605469 191.359375 115.363281 Z M 175.710938 160.449219 C 168.59375 155.085938 160.09375 158.0625 156.335938 159.859375 C 161.460938 164.589844 166.175781 165.660156 170.023438 164.445312 C 172.199219 163.757812 174.125 162.34375 175.710938 160.449219 Z M 178.964844 154.695312 C 166.382812 149.898438 164.65625 138.210938 164.828125 131.265625 C 159.578125 139.8125 155.632812 148.808594 155.0625 157.640625 C 159.253906 155.589844 169.1875 151.921875 177.347656 158.125 C 177.527344 157.816406 177.703125 157.503906 177.871094 157.183594 C 178.28125 156.394531 178.648438 155.558594 178.964844 154.695312 Z M 186.230469 156.472656 C 184.480469 156.242188 182.863281 155.914062 181.382812 155.5 C 181.023438 156.492188 180.597656 157.453125 180.125 158.363281 C 179.863281 158.871094 179.582031 159.359375 179.285156 159.835938 C 181.988281 162.554688 184.402344 166.570312 186.230469 172.34375 Z M 167.65625 127.761719 C 167.027344 132.347656 166.207031 146.796875 179.726562 152.210938 C 180.3125 149.824219 180.546875 147.285156 180.363281 144.757812 C 179.855469 137.734375 176.066406 130.839844 167.65625 127.761719 Z M 218.679688 159.859375 C 214.921875 158.0625 206.421875 155.085938 199.304688 160.449219 C 200.890625 162.34375 202.816406 163.757812 204.992188 164.445312 C 208.839844 165.660156 213.558594 164.589844 218.679688 159.859375 Z M 195.289062 152.210938 C 208.808594 146.796875 207.988281 132.347656 207.359375 127.761719 C 198.949219 130.839844 195.160156 137.734375 194.652344 144.757812 C 194.464844 147.285156 194.699219 149.824219 195.289062 152.210938 Z M 188.785156 153.894531 C 190.257812 153.683594 191.617188 153.394531 192.867188 153.035156 C 192.175781 150.324219 191.894531 147.441406 192.105469 144.578125 C 192.679688 136.660156 196.929688 128.898438 206.355469 125.402344 C 201.484375 118.363281 196.019531 111.746094 191.222656 105.9375 C 189.988281 104.449219 188.800781 103.011719 187.621094 101.558594 L 187.507812 101.734375 L 187.394531 101.558594 C 186.214844 103.007812 185.027344 104.445312 183.796875 105.9375 C 178.996094 111.742188 173.53125 118.359375 168.660156 125.402344 C 178.089844 128.894531 182.339844 136.660156 182.914062 144.574219 C 183.121094 147.4375 182.84375 150.324219 182.148438 153.035156 C 183.402344 153.390625 184.765625 153.679688 186.230469 153.890625 L 186.230469 137.90625 C 184.222656 136.363281 182.550781 134.257812 181.363281 131.773438 C 180.125 129.1875 179.414062 126.195312 179.414062 123.015625 C 179.414062 119.835938 180.125 116.847656 181.363281 114.257812 C 182.65625 111.554688 184.53125 109.292969 186.78125 107.726562 L 187.511719 107.21875 L 188.242188 107.726562 C 190.492188 109.296875 192.367188 111.554688 193.660156 114.257812 C 194.898438 116.847656 195.609375 119.835938 195.609375 123.015625 C 195.609375 126.191406 194.898438 129.1875 193.660156 131.773438 C 192.472656 134.257812 190.796875 136.363281 188.792969 137.90625 L 188.792969 153.894531 Z M 193.632812 155.5 C 192.148438 155.914062 190.535156 156.242188 188.785156 156.472656 L 188.785156 172.339844 C 190.613281 166.566406 193.027344 162.550781 195.730469 159.832031 C 195.433594 159.359375 195.152344 158.867188 194.890625 158.363281 C 194.417969 157.453125 193.992188 156.492188 193.632812 155.5 Z M 210.1875 131.265625 C 210.359375 138.214844 208.632812 149.898438 196.046875 154.695312 C 196.367188 155.558594 196.734375 156.390625 197.144531 157.183594 C 197.3125 157.503906 197.488281 157.816406 197.671875 158.125 C 205.832031 151.921875 215.761719 155.585938 219.957031 157.636719 C 219.382812 148.808594 215.441406 139.8125 210.1875 131.265625 Z M 214.617188 180.546875 C 213.070312 180.359375 211.601562 180.269531 210.203125 180.269531 L 210.203125 180.261719 C 203.101562 180.261719 198.066406 182.632812 194.671875 185.839844 C 191.300781 189.03125 189.535156 193.054688 188.980469 196.390625 C 188.929688 196.695312 188.886719 196.996094 188.855469 197.289062 C 197.269531 196.894531 204.867188 192.808594 210.449219 186.402344 C 212.003906 184.621094 213.402344 182.660156 214.617188 180.546875 Z M 188.785156 189.359375 C 189.816406 187.476562 191.179688 185.628906 192.925781 183.976562 C 196.738281 180.371094 202.351562 177.710938 210.203125 177.710938 L 210.203125 177.707031 C 211.976562 177.707031 213.871094 177.84375 215.894531 178.140625 C 218.222656 173.355469 219.664062 167.925781 219.96875 162.136719 C 214.226562 167.242188 208.785156 168.328125 204.230469 166.886719 L 204.222656 166.886719 C 201.589844 166.050781 199.277344 164.371094 197.394531 162.132812 C 193.523438 166.085938 190.28125 173.007812 188.785156 184.648438 Z M 159.121094 178.140625 C 161.144531 177.84375 163.042969 177.707031 164.8125 177.707031 L 164.8125 177.710938 C 172.664062 177.710938 178.277344 180.371094 182.089844 183.976562 C 183.835938 185.628906 185.199219 187.476562 186.230469 189.359375 L 186.230469 184.644531 C 184.734375 173.007812 181.488281 166.085938 177.621094 162.132812 C 175.738281 164.367188 173.429688 166.050781 170.792969 166.882812 L 170.785156 166.882812 C 166.230469 168.324219 160.785156 167.238281 155.046875 162.132812 C 155.351562 167.925781 156.792969 173.359375 159.121094 178.140625 Z M 186.160156 197.289062 C 186.128906 196.992188 186.089844 196.691406 186.035156 196.390625 C 185.480469 193.054688 183.714844 189.03125 180.339844 185.839844 C 176.949219 182.632812 171.914062 180.261719 164.8125 180.261719 L 164.8125 180.269531 C 163.414062 180.269531 161.945312 180.359375 160.398438 180.546875 C 161.613281 182.660156 163.011719 184.621094 164.5625 186.40625 C 170.148438 192.808594 177.746094 196.894531 186.160156 197.289062 Z M 230.585938 149.488281 C 230.585938 163.363281 225.789062 175.933594 218.035156 185.046875 C 210.234375 194.214844 199.441406 199.882812 187.507812 199.882812 C 175.578125 199.882812 164.785156 194.214844 156.984375 185.046875 C 149.226562 175.933594 144.429688 163.363281 144.429688 149.488281 C 144.429688 124.367188 165.292969 98.511719 180.703125 79.414062 L 181.695312 78.179688 C 181.765625 78.074219 181.835938 77.972656 181.90625 77.867188 C 183.308594 75.871094 185.289062 74.632812 187.507812 74.632812 C 189.726562 74.632812 191.703125 75.871094 193.109375 77.867188 C 193.179688 77.96875 193.25 78.070312 193.316406 78.175781 L 194.3125 79.414062 C 209.722656 98.511719 230.585938 124.367188 230.585938 149.488281 Z M 230.585938 149.488281 " clip-rule="nonzero"/></clipPath><linearGradient x1="173.761206" gradientTransform="matrix(0.249995, 0, 0, 0.2505, 144.429841, 74.634458)" y1="498.329288" x2="170.855171" gradientUnits="userSpaceOnUse" y2="-0.666819" id="2055c04872"><stop stop-opacity="1" stop-color="rgb(72.938538%, 49.409485%, 29.798889%)" offset="0"/><stop stop-opacity="1" stop-color="rgb(73.01178%, 49.502563%, 29.899597%)" offset="0.00402203"/><stop stop-opacity="1" stop-color="rgb(73.085022%, 49.597168%, 30.000305%)" offset="0.015625"/><stop stop-opacity="1" stop-color="rgb(73.176575%, 49.714661%, 30.125427%)" offset="0.0234375"/><stop stop-opacity="1" stop-color="rgb(73.35968%, 49.951172%, 30.375671%)" offset="0.03125"/><stop stop-opacity="1" stop-color="rgb(73.542786%, 50.186157%, 30.627441%)" offset="0.0390625"/><stop stop-opacity="1" stop-color="rgb(73.724365%, 50.421143%, 30.877686%)" offset="0.046875"/><stop stop-opacity="1" stop-color="rgb(73.907471%, 50.657654%, 31.129456%)" offset="0.0546875"/><stop stop-opacity="1" stop-color="rgb(74.090576%, 50.892639%, 31.3797%)" offset="0.0625"/><stop stop-opacity="1" stop-color="rgb(74.273682%, 51.127625%, 31.629944%)" offset="0.0703125"/><stop stop-opacity="1" stop-color="rgb(74.455261%, 51.36261%, 31.881714%)" offset="0.078125"/><stop stop-opacity="1" stop-color="rgb(74.638367%, 51.599121%, 32.131958%)" offset="0.0859375"/><stop stop-opacity="1" stop-color="rgb(74.821472%, 51.834106%, 32.383728%)" offset="0.09375"/><stop stop-opacity="1" stop-color="rgb(75.004578%, 52.069092%, 32.633972%)" offset="0.101562"/><stop stop-opacity="1" stop-color="rgb(75.186157%, 52.304077%, 32.885742%)" offset="0.109375"/><stop stop-opacity="1" stop-color="rgb(75.369263%, 52.540588%, 33.135986%)" offset="0.117188"/><stop stop-opacity="1" stop-color="rgb(75.552368%, 52.775574%, 33.38623%)" offset="0.125"/><stop stop-opacity="1" stop-color="rgb(75.735474%, 53.010559%, 33.638%)" offset="0.132812"/><stop stop-opacity="1" stop-color="rgb(75.918579%, 53.24707%, 33.888245%)" offset="0.140625"/><stop stop-opacity="1" stop-color="rgb(76.100159%, 53.482056%, 34.140015%)" offset="0.148437"/><stop stop-opacity="1" stop-color="rgb(76.283264%, 53.717041%, 34.390259%)" offset="0.15625"/><stop stop-opacity="1" stop-color="rgb(76.46637%, 53.952026%, 34.640503%)" offset="0.164062"/><stop stop-opacity="1" stop-color="rgb(76.649475%, 54.188538%, 34.892273%)" offset="0.171875"/><stop stop-opacity="1" stop-color="rgb(76.831055%, 54.423523%, 35.142517%)" offset="0.179687"/><stop stop-opacity="1" stop-color="rgb(77.01416%, 54.658508%, 35.394287%)" offset="0.1875"/><stop stop-opacity="1" stop-color="rgb(77.197266%, 54.893494%, 35.644531%)" offset="0.195312"/><stop stop-opacity="1" stop-color="rgb(77.380371%, 55.130005%, 35.896301%)" offset="0.203125"/><stop stop-opacity="1" stop-color="rgb(77.561951%, 55.36499%, 36.146545%)" offset="0.210937"/><stop stop-opacity="1" stop-color="rgb(77.745056%, 55.599976%, 36.39679%)" offset="0.21875"/><stop stop-opacity="1" stop-color="rgb(77.928162%, 55.836487%, 36.64856%)" offset="0.226562"/><stop stop-opacity="1" stop-color="rgb(78.111267%, 56.071472%, 36.898804%)" offset="0.234375"/><stop stop-opacity="1" stop-color="rgb(78.292847%, 56.306458%, 37.150574%)" offset="0.242187"/><stop stop-opacity="1" stop-color="rgb(78.475952%, 56.541443%, 37.400818%)" offset="0.25"/><stop stop-opacity="1" stop-color="rgb(78.659058%, 56.777954%, 37.652588%)" offset="0.257812"/><stop stop-opacity="1" stop-color="rgb(78.842163%, 57.012939%, 37.902832%)" offset="0.265625"/><stop stop-opacity="1" stop-color="rgb(79.023743%, 57.247925%, 38.153076%)" offset="0.273438"/><stop stop-opacity="1" stop-color="rgb(79.206848%, 57.484436%, 38.404846%)" offset="0.28125"/><stop stop-opacity="1" stop-color="rgb(79.389954%, 57.719421%, 38.65509%)" offset="0.289062"/><stop stop-opacity="1" stop-color="rgb(79.573059%, 57.954407%, 38.90686%)" offset="0.296875"/><stop stop-opacity="1" stop-color="rgb(79.754639%, 58.189392%, 39.157104%)" offset="0.304688"/><stop stop-opacity="1" stop-color="rgb(79.937744%, 58.425903%, 39.407349%)" offset="0.3125"/><stop stop-opacity="1" stop-color="rgb(80.12085%, 58.660889%, 39.659119%)" offset="0.320312"/><stop stop-opacity="1" stop-color="rgb(80.303955%, 58.895874%, 39.909363%)" offset="0.328125"/><stop stop-opacity="1" stop-color="rgb(80.485535%, 59.130859%, 40.161133%)" offset="0.335938"/><stop stop-opacity="1" stop-color="rgb(80.66864%, 59.367371%, 40.411377%)" offset="0.34375"/><stop stop-opacity="1" stop-color="rgb(80.851746%, 59.602356%, 40.663147%)" offset="0.351562"/><stop stop-opacity="1" stop-color="rgb(81.034851%, 59.837341%, 40.913391%)" offset="0.359375"/><stop stop-opacity="1" stop-color="rgb(81.216431%, 60.073853%, 41.163635%)" offset="0.367188"/><stop stop-opacity="1" stop-color="rgb(81.399536%, 60.308838%, 41.415405%)" offset="0.375"/><stop stop-opacity="1" stop-color="rgb(81.582642%, 60.543823%, 41.665649%)" offset="0.382813"/><stop stop-opacity="1" stop-color="rgb(81.765747%, 60.778809%, 41.917419%)" offset="0.390625"/><stop stop-opacity="1" stop-color="rgb(81.947327%, 61.01532%, 42.167664%)" offset="0.398438"/><stop stop-opacity="1" stop-color="rgb(82.130432%, 61.250305%, 42.417908%)" offset="0.40625"/><stop stop-opacity="1" stop-color="rgb(82.313538%, 61.485291%, 42.669678%)" offset="0.414063"/><stop stop-opacity="1" stop-color="rgb(82.496643%, 61.720276%, 42.919922%)" offset="0.421875"/><stop stop-opacity="1" stop-color="rgb(82.678223%, 61.956787%, 43.171692%)" offset="0.429688"/><stop stop-opacity="1" stop-color="rgb(82.861328%, 62.191772%, 43.421936%)" offset="0.4375"/><stop stop-opacity="1" stop-color="rgb(83.044434%, 62.426758%, 43.673706%)" offset="0.445313"/><stop stop-opacity="1" stop-color="rgb(83.227539%, 62.663269%, 43.92395%)" offset="0.453125"/><stop stop-opacity="1" stop-color="rgb(83.409119%, 62.898254%, 44.174194%)" offset="0.460938"/><stop stop-opacity="1" stop-color="rgb(83.592224%, 63.13324%, 44.425964%)" offset="0.46875"/><stop stop-opacity="1" stop-color="rgb(83.77533%, 63.368225%, 44.676208%)" offset="0.476563"/><stop stop-opacity="1" stop-color="rgb(83.958435%, 63.604736%, 44.927979%)" offset="0.484375"/><stop stop-opacity="1" stop-color="rgb(84.141541%, 63.839722%, 45.178223%)" offset="0.492187"/><stop stop-opacity="1" stop-color="rgb(84.32312%, 64.074707%, 45.428467%)" offset="0.5"/><stop stop-opacity="1" stop-color="rgb(84.506226%, 64.309692%, 45.680237%)" offset="0.507812"/><stop stop-opacity="1" stop-color="rgb(84.689331%, 64.546204%, 45.930481%)" offset="0.515625"/><stop stop-opacity="1" stop-color="rgb(84.872437%, 64.781189%, 46.182251%)" offset="0.523438"/><stop stop-opacity="1" stop-color="rgb(85.054016%, 65.016174%, 46.432495%)" offset="0.53125"/><stop stop-opacity="1" stop-color="rgb(85.237122%, 65.252686%, 46.684265%)" offset="0.539062"/><stop stop-opacity="1" stop-color="rgb(85.420227%, 65.487671%, 46.934509%)" offset="0.546875"/><stop stop-opacity="1" stop-color="rgb(85.603333%, 65.722656%, 47.184753%)" offset="0.554688"/><stop stop-opacity="1" stop-color="rgb(85.784912%, 65.957642%, 47.436523%)" offset="0.5625"/><stop stop-opacity="1" stop-color="rgb(85.968018%, 66.194153%, 47.686768%)" offset="0.570312"/><stop stop-opacity="1" stop-color="rgb(86.151123%, 66.429138%, 47.938538%)" offset="0.578125"/><stop stop-opacity="1" stop-color="rgb(86.334229%, 66.664124%, 48.188782%)" offset="0.585938"/><stop stop-opacity="1" stop-color="rgb(86.515808%, 66.900635%, 48.440552%)" offset="0.59375"/><stop stop-opacity="1" stop-color="rgb(86.698914%, 67.13562%, 48.690796%)" offset="0.601562"/><stop stop-opacity="1" stop-color="rgb(86.882019%, 67.370605%, 48.94104%)" offset="0.609375"/><stop stop-opacity="1" stop-color="rgb(87.065125%, 67.605591%, 49.19281%)" offset="0.617188"/><stop stop-opacity="1" stop-color="rgb(87.246704%, 67.842102%, 49.443054%)" offset="0.625"/><stop stop-opacity="1" stop-color="rgb(87.42981%, 68.077087%, 49.694824%)" offset="0.632812"/><stop stop-opacity="1" stop-color="rgb(87.612915%, 68.312073%, 49.945068%)" offset="0.640625"/><stop stop-opacity="1" stop-color="rgb(87.796021%, 68.547058%, 50.195312%)" offset="0.648438"/><stop stop-opacity="1" stop-color="rgb(87.9776%, 68.783569%, 50.447083%)" offset="0.65625"/><stop stop-opacity="1" stop-color="rgb(88.160706%, 69.018555%, 50.697327%)" offset="0.664062"/><stop stop-opacity="1" stop-color="rgb(88.343811%, 69.25354%, 50.949097%)" offset="0.671875"/><stop stop-opacity="1" stop-color="rgb(88.526917%, 69.490051%, 51.199341%)" offset="0.679688"/><stop stop-opacity="1" stop-color="rgb(88.708496%, 69.725037%, 51.451111%)" offset="0.6875"/><stop stop-opacity="1" stop-color="rgb(88.891602%, 69.960022%, 51.701355%)" offset="0.695312"/><stop stop-opacity="1" stop-color="rgb(89.074707%, 70.195007%, 51.951599%)" offset="0.703125"/><stop stop-opacity="1" stop-color="rgb(89.257812%, 70.431519%, 52.203369%)" offset="0.710938"/><stop stop-opacity="1" stop-color="rgb(89.439392%, 70.666504%, 52.453613%)" offset="0.71875"/><stop stop-opacity="1" stop-color="rgb(89.622498%, 70.901489%, 52.705383%)" offset="0.726562"/><stop stop-opacity="1" stop-color="rgb(89.805603%, 71.136475%, 52.955627%)" offset="0.734375"/><stop stop-opacity="1" stop-color="rgb(89.988708%, 71.372986%, 53.205872%)" offset="0.742188"/><stop stop-opacity="1" stop-color="rgb(90.170288%, 71.607971%, 53.457642%)" offset="0.75"/><stop stop-opacity="1" stop-color="rgb(90.353394%, 71.842957%, 53.707886%)" offset="0.757812"/><stop stop-opacity="1" stop-color="rgb(90.536499%, 72.079468%, 53.959656%)" offset="0.765625"/><stop stop-opacity="1" stop-color="rgb(90.719604%, 72.314453%, 54.2099%)" offset="0.773437"/><stop stop-opacity="1" stop-color="rgb(90.901184%, 72.549438%, 54.46167%)" offset="0.78125"/><stop stop-opacity="1" stop-color="rgb(91.08429%, 72.784424%, 54.711914%)" offset="0.789062"/><stop stop-opacity="1" stop-color="rgb(91.267395%, 73.020935%, 54.962158%)" offset="0.796875"/><stop stop-opacity="1" stop-color="rgb(91.4505%, 73.25592%, 55.213928%)" offset="0.804687"/><stop stop-opacity="1" stop-color="rgb(91.63208%, 73.490906%, 55.464172%)" offset="0.8125"/><stop stop-opacity="1" stop-color="rgb(91.815186%, 73.725891%, 55.715942%)" offset="0.820312"/><stop stop-opacity="1" stop-color="rgb(91.998291%, 73.962402%, 55.966187%)" offset="0.828125"/><stop stop-opacity="1" stop-color="rgb(92.181396%, 74.197388%, 56.216431%)" offset="0.835937"/><stop stop-opacity="1" stop-color="rgb(92.364502%, 74.432373%, 56.468201%)" offset="0.84375"/><stop stop-opacity="1" stop-color="rgb(92.546082%, 74.668884%, 56.718445%)" offset="0.851562"/><stop stop-opacity="1" stop-color="rgb(92.729187%, 74.90387%, 56.970215%)" offset="0.859375"/><stop stop-opacity="1" stop-color="rgb(92.912292%, 75.138855%, 57.220459%)" offset="0.867187"/><stop stop-opacity="1" stop-color="rgb(93.095398%, 75.37384%, 57.472229%)" offset="0.875"/><stop stop-opacity="1" stop-color="rgb(93.276978%, 75.610352%, 57.722473%)" offset="0.882812"/><stop stop-opacity="1" stop-color="rgb(93.460083%, 75.845337%, 57.972717%)" offset="0.890625"/><stop stop-opacity="1" stop-color="rgb(93.643188%, 76.080322%, 58.224487%)" offset="0.898437"/><stop stop-opacity="1" stop-color="rgb(93.826294%, 76.316833%, 58.474731%)" offset="0.90625"/><stop stop-opacity="1" stop-color="rgb(94.007874%, 76.551819%, 58.726501%)" offset="0.914062"/><stop stop-opacity="1" stop-color="rgb(94.190979%, 76.786804%, 58.976746%)" offset="0.921875"/><stop stop-opacity="1" stop-color="rgb(94.374084%, 77.02179%, 59.22699%)" offset="0.929687"/><stop stop-opacity="1" stop-color="rgb(94.55719%, 77.258301%, 59.47876%)" offset="0.9375"/><stop stop-opacity="1" stop-color="rgb(94.73877%, 77.493286%, 59.729004%)" offset="0.945312"/><stop stop-opacity="1" stop-color="rgb(94.921875%, 77.728271%, 59.980774%)" offset="0.953125"/><stop stop-opacity="1" stop-color="rgb(95.10498%, 77.963257%, 60.231018%)" offset="0.960937"/><stop stop-opacity="1" stop-color="rgb(95.288086%, 78.199768%, 60.482788%)" offset="0.96875"/><stop stop-opacity="1" stop-color="rgb(95.469666%, 78.434753%, 60.733032%)" offset="0.976562"/><stop stop-opacity="1" stop-color="rgb(95.652771%, 78.669739%, 60.983276%)" offset="0.984375"/><stop stop-opacity="1" stop-color="rgb(95.835876%, 78.90625%, 61.235046%)" offset="0.992187"/><stop stop-opacity="1" stop-color="rgb(96.002197%, 79.121399%, 61.463928%)" offset="0.995978"/><stop stop-opacity="1" stop-color="rgb(96.078491%, 79.219055%, 61.569214%)" offset="1"/></linearGradient></defs><rect x="-37.5" width="450" fill="#ffffff" y="-37.499999" height="449.999989" fill-opacity="1"/><rect x="-37.5" width="450" fill="#3c2e5a" y="-37.499999" height="449.999989" fill-opacity="1"/><g transform="matrix(1, 0, 0, 1, 24, 211)"><g clip-path="url(#ee08239097)"><g fill="#dad5f7" fill-opacity="1"><g transform="translate(1.997343, 32.458822)"><g><path d="M 10.71875 0 C 9.601562 0 8.484375 -0.0976562 7.359375 -0.296875 C 6.242188 -0.503906 5.179688 -0.84375 4.171875 -1.3125 C 3.515625 -1.613281 2.835938 -2.015625 2.140625 -2.515625 C 1.453125 -3.015625 0.875 -3.601562 0.40625 -4.28125 C -0.0507812 -4.96875 -0.28125 -5.707031 -0.28125 -6.5 C -0.28125 -7.40625 0.015625 -8.160156 0.609375 -8.765625 C 1.210938 -9.378906 2.085938 -9.6875 3.234375 -9.6875 C 2.796875 -8.40625 2.707031 -7.195312 2.96875 -6.0625 C 3.226562 -4.9375 3.738281 -3.96875 4.5 -3.15625 C 5.375 -2.226562 6.476562 -1.554688 7.8125 -1.140625 C 9.144531 -0.734375 10.546875 -0.5625 12.015625 -0.625 C 13.492188 -0.695312 14.894531 -0.976562 16.21875 -1.46875 C 17.539062 -1.957031 18.625 -2.613281 19.46875 -3.4375 C 20.375 -4.332031 20.925781 -5.269531 21.125 -6.25 C 21.332031 -7.238281 21.25 -8.195312 20.875 -9.125 C 20.507812 -10.050781 19.910156 -10.878906 19.078125 -11.609375 C 18.242188 -12.347656 17.253906 -12.921875 16.109375 -13.328125 C 14.992188 -13.742188 13.757812 -14.066406 12.40625 -14.296875 C 11.0625 -14.523438 9.707031 -14.78125 8.34375 -15.0625 C 6.976562 -15.351562 5.703125 -15.765625 4.515625 -16.296875 C 3.328125 -16.828125 2.328125 -17.585938 1.515625 -18.578125 C 0.671875 -19.609375 0.179688 -20.789062 0.046875 -22.125 C -0.0859375 -23.46875 0.140625 -24.710938 0.734375 -25.859375 C 1.222656 -26.835938 1.910156 -27.640625 2.796875 -28.265625 C 3.679688 -28.890625 4.660156 -29.378906 5.734375 -29.734375 C 6.816406 -30.085938 7.925781 -30.332031 9.0625 -30.46875 C 10.195312 -30.601562 11.253906 -30.671875 12.234375 -30.671875 C 13.347656 -30.671875 14.460938 -30.566406 15.578125 -30.359375 C 16.703125 -30.160156 17.769531 -29.832031 18.78125 -29.375 C 19.425781 -29.070312 20.097656 -28.660156 20.796875 -28.140625 C 21.492188 -27.617188 22.070312 -27.023438 22.53125 -26.359375 C 23 -25.691406 23.234375 -24.960938 23.234375 -24.171875 C 23.234375 -23.242188 22.929688 -22.472656 22.328125 -21.859375 C 21.734375 -21.242188 20.863281 -20.953125 19.71875 -20.984375 C 20.125 -22.128906 20.238281 -23.21875 20.0625 -24.25 C 19.882812 -25.289062 19.484375 -26.207031 18.859375 -27 C 18.171875 -27.925781 17.238281 -28.632812 16.0625 -29.125 C 14.894531 -29.613281 13.632812 -29.90625 12.28125 -30 C 10.9375 -30.09375 9.640625 -29.992188 8.390625 -29.703125 C 7.460938 -29.503906 6.554688 -29.164062 5.671875 -28.6875 C 4.785156 -28.21875 4.035156 -27.613281 3.421875 -26.875 C 2.804688 -26.132812 2.441406 -25.25 2.328125 -24.21875 C 2.222656 -23.070312 2.46875 -22.125 3.0625 -21.375 C 3.664062 -20.625 4.460938 -20.023438 5.453125 -19.578125 C 6.453125 -19.128906 7.472656 -18.765625 8.515625 -18.484375 C 9.796875 -18.191406 11.171875 -17.925781 12.640625 -17.6875 C 14.109375 -17.457031 15.546875 -17.132812 16.953125 -16.71875 C 18.359375 -16.3125 19.578125 -15.6875 20.609375 -14.84375 C 21.617188 -14.03125 22.382812 -13.070312 22.90625 -11.96875 C 23.425781 -10.863281 23.671875 -9.71875 23.640625 -8.53125 C 23.617188 -7.34375 23.320312 -6.203125 22.75 -5.109375 C 22.175781 -4.023438 21.316406 -3.097656 20.171875 -2.328125 C 18.828125 -1.429688 17.289062 -0.816406 15.5625 -0.484375 C 13.832031 -0.160156 12.21875 0 10.71875 0 Z M 10.71875 0 "/></g></g></g><g fill="#dad5f7" fill-opacity="1"><g transform="translate(30.176045, 32.458822)"><g><path d="M 18.734375 -13.625 L 18.734375 0 L 15.34375 0 L 15.34375 -6.875 C 14.851562 -5.613281 14.179688 -4.460938 13.328125 -3.421875 C 12.484375 -2.390625 11.484375 -1.5625 10.328125 -0.9375 C 9.171875 -0.3125 7.882812 0 6.46875 0 C 4.53125 0 2.96875 -0.570312 1.78125 -1.71875 C 0.59375 -2.863281 0 -4.414062 0 -6.375 C 0 -7.550781 0.273438 -8.609375 0.828125 -9.546875 C 1.390625 -10.492188 2.140625 -11.238281 3.078125 -11.78125 C 4.023438 -12.320312 5.070312 -12.59375 6.21875 -12.59375 C 7.175781 -12.59375 8.015625 -12.46875 8.734375 -12.21875 C 9.453125 -11.976562 10.140625 -11.710938 10.796875 -11.421875 C 11.453125 -11.140625 12.175781 -10.957031 12.96875 -10.875 C 14.03125 -10.769531 14.691406 -10.988281 14.953125 -11.53125 C 15.210938 -12.082031 15.34375 -12.78125 15.34375 -13.625 C 15.34375 -15.5625 14.867188 -17.066406 13.921875 -18.140625 C 12.984375 -19.210938 11.503906 -19.765625 9.484375 -19.796875 C 8.722656 -19.828125 7.921875 -19.734375 7.078125 -19.515625 C 6.234375 -19.296875 5.46875 -18.945312 4.78125 -18.46875 C 4.101562 -17.988281 3.613281 -17.351562 3.3125 -16.5625 C 2.957031 -15.695312 2.984375 -14.785156 3.390625 -13.828125 C 2.242188 -13.710938 1.390625 -13.882812 0.828125 -14.34375 C 0.273438 -14.8125 0 -15.398438 0 -16.109375 C 0 -16.828125 0.304688 -17.472656 0.921875 -18.046875 C 1.535156 -18.617188 2.179688 -19.050781 2.859375 -19.34375 C 3.679688 -19.695312 4.691406 -19.96875 5.890625 -20.15625 C 7.085938 -20.351562 8.328125 -20.453125 9.609375 -20.453125 C 11.273438 -20.453125 12.796875 -20.265625 14.171875 -19.890625 C 15.546875 -19.523438 16.648438 -18.851562 17.484375 -17.875 C 18.316406 -16.894531 18.734375 -15.476562 18.734375 -13.625 Z M 15.34375 -10.921875 C 14.988281 -10.566406 14.523438 -10.351562 13.953125 -10.28125 C 13.378906 -10.21875 12.859375 -10.226562 12.390625 -10.3125 C 11.578125 -10.445312 10.757812 -10.625 9.9375 -10.84375 C 9.125 -11.0625 8.289062 -11.140625 7.4375 -11.078125 C 6.101562 -10.972656 5.101562 -10.4375 4.4375 -9.46875 C 3.769531 -8.5 3.421875 -7.457031 3.390625 -6.34375 C 3.367188 -5.0625 3.660156 -4.015625 4.265625 -3.203125 C 4.878906 -2.398438 5.6875 -1.875 6.6875 -1.625 C 7.6875 -1.382812 8.726562 -1.457031 9.8125 -1.84375 C 11.039062 -2.28125 12.050781 -2.988281 12.84375 -3.96875 C 13.632812 -4.945312 14.234375 -6.050781 14.640625 -7.28125 C 15.054688 -8.507812 15.289062 -9.722656 15.34375 -10.921875 Z M 15.34375 -10.921875 "/></g></g></g><g fill="#dad5f7" fill-opacity="1"><g transform="translate(53.038008, 32.458822)"><g><path d="M 0 -20.453125 L 3.390625 -20.453125 L 3.390625 0 L 0 0 Z M 1.71875 -24.75 C 2.175781 -24.75 2.566406 -24.582031 2.890625 -24.25 C 3.222656 -23.925781 3.390625 -23.535156 3.390625 -23.078125 C 3.390625 -22.609375 3.222656 -22.203125 2.890625 -21.859375 C 2.566406 -21.523438 2.175781 -21.359375 1.71875 -21.359375 C 1.25 -21.359375 0.84375 -21.523438 0.5 -21.859375 C 0.164062 -22.203125 0 -22.609375 0 -23.078125 C 0 -23.535156 0.164062 -23.925781 0.5 -24.25 C 0.84375 -24.582031 1.25 -24.75 1.71875 -24.75 Z M 1.71875 -24.75 "/></g></g></g><g fill="#dad5f7" fill-opacity="1"><g transform="translate(60.481434, 32.458822)"><g><path d="M 0 -20.453125 L 3.390625 -20.453125 L 3.390625 -18.6875 C 4.671875 -19.207031 6.132812 -19.628906 7.78125 -19.953125 C 9.4375 -20.285156 11.03125 -20.453125 12.5625 -20.453125 C 13.59375 -20.453125 14.578125 -20.34375 15.515625 -20.125 C 16.460938 -19.90625 17.234375 -19.46875 17.828125 -18.8125 C 18.429688 -18.15625 18.734375 -17.1875 18.734375 -15.90625 L 18.734375 0 L 15.34375 0 L 15.34375 -15.90625 C 15.34375 -17.164062 15.046875 -18.082031 14.453125 -18.65625 C 13.867188 -19.226562 13.15625 -19.566406 12.3125 -19.671875 C 11.4375 -19.804688 10.445312 -19.757812 9.34375 -19.53125 C 8.238281 -19.300781 7.160156 -18.957031 6.109375 -18.5 C 5.066406 -18.050781 4.160156 -17.539062 3.390625 -16.96875 L 3.390625 0 L 0 0 Z M 0 -20.453125 "/></g></g></g><g fill="#dad5f7" fill-opacity="1"><g transform="translate(83.261597, 32.458822)"><g><path d="M -3.03125 -20.40625 C -1.988281 -20.40625 -1.03125 -20.65625 -0.15625 -21.15625 C 0.707031 -21.664062 1.40625 -22.34375 1.9375 -23.1875 C 2.46875 -24.039062 2.734375 -24.957031 2.734375 -25.9375 L 3.390625 -25.9375 L 3.390625 -20.40625 L 7.328125 -20.40625 L 7.328125 -19.796875 L 3.390625 -19.796875 L 3.390625 -4.375 C 3.390625 -3.414062 3.597656 -2.6875 4.015625 -2.1875 C 4.441406 -1.6875 4.972656 -1.453125 5.609375 -1.484375 C 6.253906 -1.523438 6.90625 -1.875 7.5625 -2.53125 L 8.015625 -2.09375 C 7.472656 -1.539062 6.796875 -1.050781 5.984375 -0.625 C 5.179688 -0.207031 4.382812 0 3.59375 0 C 2.914062 0 2.34375 -0.128906 1.875 -0.390625 C 1.414062 -0.648438 1.035156 -1 0.734375 -1.4375 C 0.429688 -1.925781 0.234375 -2.460938 0.140625 -3.046875 C 0.046875 -3.628906 0 -4.207031 0 -4.78125 L 0 -19.796875 L -3.03125 -19.796875 Z M -3.03125 -20.40625 "/></g></g></g><g fill="#dad5f7" fill-opacity="1"><g transform="translate(93.690577, 32.458822)"><g><path d="M 0 -20.453125 L 0 10.21875 L 3.390625 10.21875 L 3.390625 0 L 7.9375 0 C 10.394531 0 12.421875 -0.484375 14.015625 -1.453125 C 15.609375 -2.421875 16.789062 -3.785156 17.5625 -5.546875 C 18.34375 -7.304688 18.734375 -9.359375 18.734375 -11.703125 C 18.734375 -13.253906 18.453125 -14.695312 17.890625 -16.03125 C 17.335938 -17.375 16.507812 -18.445312 15.40625 -19.25 C 14.300781 -20.050781 12.898438 -20.453125 11.203125 -20.453125 C 9.679688 -20.453125 8.257812 -20.082031 6.9375 -19.34375 C 5.613281 -18.613281 4.429688 -17.703125 3.390625 -16.609375 L 3.390625 -20.453125 Z M 3.390625 -14.6875 C 3.859375 -15.5 4.425781 -16.296875 5.09375 -17.078125 C 5.757812 -17.859375 6.515625 -18.453125 7.359375 -18.859375 C 8.722656 -19.515625 9.898438 -19.742188 10.890625 -19.546875 C 11.890625 -19.359375 12.71875 -18.875 13.375 -18.09375 C 14.03125 -17.320312 14.519531 -16.367188 14.84375 -15.234375 C 15.175781 -14.109375 15.34375 -12.929688 15.34375 -11.703125 C 15.34375 -9.785156 15.082031 -7.988281 14.5625 -6.3125 C 14.039062 -4.632812 13.164062 -3.28125 11.9375 -2.25 C 10.71875 -1.21875 9.039062 -0.703125 6.90625 -0.703125 C 6.28125 -0.703125 5.660156 -0.726562 5.046875 -0.78125 C 4.429688 -0.832031 3.878906 -0.925781 3.390625 -1.0625 Z M 3.390625 -14.6875 "/></g></g></g><g fill="#dad5f7" fill-opacity="1"><g transform="translate(116.307155, 32.458822)"><g><path d="M 18.734375 -13.625 L 18.734375 0 L 15.34375 0 L 15.34375 -6.875 C 14.851562 -5.613281 14.179688 -4.460938 13.328125 -3.421875 C 12.484375 -2.390625 11.484375 -1.5625 10.328125 -0.9375 C 9.171875 -0.3125 7.882812 0 6.46875 0 C 4.53125 0 2.96875 -0.570312 1.78125 -1.71875 C 0.59375 -2.863281 0 -4.414062 0 -6.375 C 0 -7.550781 0.273438 -8.609375 0.828125 -9.546875 C 1.390625 -10.492188 2.140625 -11.238281 3.078125 -11.78125 C 4.023438 -12.320312 5.070312 -12.59375 6.21875 -12.59375 C 7.175781 -12.59375 8.015625 -12.46875 8.734375 -12.21875 C 9.453125 -11.976562 10.140625 -11.710938 10.796875 -11.421875 C 11.453125 -11.140625 12.175781 -10.957031 12.96875 -10.875 C 14.03125 -10.769531 14.691406 -10.988281 14.953125 -11.53125 C 15.210938 -12.082031 15.34375 -12.78125 15.34375 -13.625 C 15.34375 -15.5625 14.867188 -17.066406 13.921875 -18.140625 C 12.984375 -19.210938 11.503906 -19.765625 9.484375 -19.796875 C 8.722656 -19.828125 7.921875 -19.734375 7.078125 -19.515625 C 6.234375 -19.296875 5.46875 -18.945312 4.78125 -18.46875 C 4.101562 -17.988281 3.613281 -17.351562 3.3125 -16.5625 C 2.957031 -15.695312 2.984375 -14.785156 3.390625 -13.828125 C 2.242188 -13.710938 1.390625 -13.882812 0.828125 -14.34375 C 0.273438 -14.8125 0 -15.398438 0 -16.109375 C 0 -16.828125 0.304688 -17.472656 0.921875 -18.046875 C 1.535156 -18.617188 2.179688 -19.050781 2.859375 -19.34375 C 3.679688 -19.695312 4.691406 -19.96875 5.890625 -20.15625 C 7.085938 -20.351562 8.328125 -20.453125 9.609375 -20.453125 C 11.273438 -20.453125 12.796875 -20.265625 14.171875 -19.890625 C 15.546875 -19.523438 16.648438 -18.851562 17.484375 -17.875 C 18.316406 -16.894531 18.734375 -15.476562 18.734375 -13.625 Z M 15.34375 -10.921875 C 14.988281 -10.566406 14.523438 -10.351562 13.953125 -10.28125 C 13.378906 -10.21875 12.859375 -10.226562 12.390625 -10.3125 C 11.578125 -10.445312 10.757812 -10.625 9.9375 -10.84375 C 9.125 -11.0625 8.289062 -11.140625 7.4375 -11.078125 C 6.101562 -10.972656 5.101562 -10.4375 4.4375 -9.46875 C 3.769531 -8.5 3.421875 -7.457031 3.390625 -6.34375 C 3.367188 -5.0625 3.660156 -4.015625 4.265625 -3.203125 C 4.878906 -2.398438 5.6875 -1.875 6.6875 -1.625 C 7.6875 -1.382812 8.726562 -1.457031 9.8125 -1.84375 C 11.039062 -2.28125 12.050781 -2.988281 12.84375 -3.96875 C 13.632812 -4.945312 14.234375 -6.050781 14.640625 -7.28125 C 15.054688 -8.507812 15.289062 -9.722656 15.34375 -10.921875 Z M 15.34375 -10.921875 "/></g></g></g><g fill="#dad5f7" fill-opacity="1"><g transform="translate(139.169117, 32.458822)"><g><path d="M 18.734375 0 L 15.34375 0 L 15.34375 -1.765625 C 14.082031 -1.242188 12.617188 -0.816406 10.953125 -0.484375 C 9.296875 -0.160156 7.703125 0 6.171875 0 C 5.140625 0 4.148438 -0.109375 3.203125 -0.328125 C 2.265625 -0.546875 1.492188 -0.972656 0.890625 -1.609375 C 0.296875 -2.253906 0 -3.234375 0 -4.546875 L 0 -20.453125 L 3.390625 -20.453125 L 3.390625 -4.546875 C 3.390625 -3.285156 3.679688 -2.375 4.265625 -1.8125 C 4.859375 -1.257812 5.578125 -0.914062 6.421875 -0.78125 C 7.316406 -0.644531 8.3125 -0.691406 9.40625 -0.921875 C 10.5 -1.148438 11.566406 -1.492188 12.609375 -1.953125 C 13.660156 -2.421875 14.570312 -2.929688 15.34375 -3.484375 L 15.34375 -20.453125 L 18.734375 -20.453125 Z M 18.734375 0 "/></g></g></g><g fill="#dad5f7" fill-opacity="1"><g transform="translate(161.94928, 32.458822)"><g><path d="M 0 0 L 0 -30.671875 L 3.390625 -30.671875 L 3.390625 0 Z M 0 0 "/></g></g></g><g fill="#dad5f7" fill-opacity="1"><g transform="translate(169.474506, 32.458822)"><g><path d="M 0 -20.453125 L 3.390625 -20.453125 L 3.390625 0 L 0 0 Z M 1.71875 -24.75 C 2.175781 -24.75 2.566406 -24.582031 2.890625 -24.25 C 3.222656 -23.925781 3.390625 -23.535156 3.390625 -23.078125 C 3.390625 -22.609375 3.222656 -22.203125 2.890625 -21.859375 C 2.566406 -21.523438 2.175781 -21.359375 1.71875 -21.359375 C 1.25 -21.359375 0.84375 -21.523438 0.5 -21.859375 C 0.164062 -22.203125 0 -22.609375 0 -23.078125 C 0 -23.535156 0.164062 -23.925781 0.5 -24.25 C 0.84375 -24.582031 1.25 -24.75 1.71875 -24.75 Z M 1.71875 -24.75 "/></g></g></g><g fill="#dad5f7" fill-opacity="1"><g transform="translate(176.917933, 32.458822)"><g><path d="M 18.734375 -13.625 L 18.734375 0 L 15.34375 0 L 15.34375 -6.875 C 14.851562 -5.613281 14.179688 -4.460938 13.328125 -3.421875 C 12.484375 -2.390625 11.484375 -1.5625 10.328125 -0.9375 C 9.171875 -0.3125 7.882812 0 6.46875 0 C 4.53125 0 2.96875 -0.570312 1.78125 -1.71875 C 0.59375 -2.863281 0 -4.414062 0 -6.375 C 0 -7.550781 0.273438 -8.609375 0.828125 -9.546875 C 1.390625 -10.492188 2.140625 -11.238281 3.078125 -11.78125 C 4.023438 -12.320312 5.070312 -12.59375 6.21875 -12.59375 C 7.175781 -12.59375 8.015625 -12.46875 8.734375 -12.21875 C 9.453125 -11.976562 10.140625 -11.710938 10.796875 -11.421875 C 11.453125 -11.140625 12.175781 -10.957031 12.96875 -10.875 C 14.03125 -10.769531 14.691406 -10.988281 14.953125 -11.53125 C 15.210938 -12.082031 15.34375 -12.78125 15.34375 -13.625 C 15.34375 -15.5625 14.867188 -17.066406 13.921875 -18.140625 C 12.984375 -19.210938 11.503906 -19.765625 9.484375 -19.796875 C 8.722656 -19.828125 7.921875 -19.734375 7.078125 -19.515625 C 6.234375 -19.296875 5.46875 -18.945312 4.78125 -18.46875 C 4.101562 -17.988281 3.613281 -17.351562 3.3125 -16.5625 C 2.957031 -15.695312 2.984375 -14.785156 3.390625 -13.828125 C 2.242188 -13.710938 1.390625 -13.882812 0.828125 -14.34375 C 0.273438 -14.8125 0 -15.398438 0 -16.109375 C 0 -16.828125 0.304688 -17.472656 0.921875 -18.046875 C 1.535156 -18.617188 2.179688 -19.050781 2.859375 -19.34375 C 3.679688 -19.695312 4.691406 -19.96875 5.890625 -20.15625 C 7.085938 -20.351562 8.328125 -20.453125 9.609375 -20.453125 C 11.273438 -20.453125 12.796875 -20.265625 14.171875 -19.890625 C 15.546875 -19.523438 16.648438 -18.851562 17.484375 -17.875 C 18.316406 -16.894531 18.734375 -15.476562 18.734375 -13.625 Z M 15.34375 -10.921875 C 14.988281 -10.566406 14.523438 -10.351562 13.953125 -10.28125 C 13.378906 -10.21875 12.859375 -10.226562 12.390625 -10.3125 C 11.578125 -10.445312 10.757812 -10.625 9.9375 -10.84375 C 9.125 -11.0625 8.289062 -11.140625 7.4375 -11.078125 C 6.101562 -10.972656 5.101562 -10.4375 4.4375 -9.46875 C 3.769531 -8.5 3.421875 -7.457031 3.390625 -6.34375 C 3.367188 -5.0625 3.660156 -4.015625 4.265625 -3.203125 C 4.878906 -2.398438 5.6875 -1.875 6.6875 -1.625 C 7.6875 -1.382812 8.726562 -1.457031 9.8125 -1.84375 C 11.039062 -2.28125 12.050781 -2.988281 12.84375 -3.96875 C 13.632812 -4.945312 14.234375 -6.050781 14.640625 -7.28125 C 15.054688 -8.507812 15.289062 -9.722656 15.34375 -10.921875 Z M 15.34375 -10.921875 "/></g></g></g><g fill="#dad5f7" fill-opacity="1"><g transform="translate(199.779896, 32.458822)"><g/></g></g><g fill="#dad5f7" fill-opacity="1"><g transform="translate(209.759007, 32.458822)"><g><path d="M 10.71875 0 C 9.601562 0 8.484375 -0.0976562 7.359375 -0.296875 C 6.242188 -0.503906 5.179688 -0.84375 4.171875 -1.3125 C 3.515625 -1.613281 2.835938 -2.015625 2.140625 -2.515625 C 1.453125 -3.015625 0.875 -3.601562 0.40625 -4.28125 C -0.0507812 -4.96875 -0.28125 -5.707031 -0.28125 -6.5 C -0.28125 -7.40625 0.015625 -8.160156 0.609375 -8.765625 C 1.210938 -9.378906 2.085938 -9.6875 3.234375 -9.6875 C 2.796875 -8.40625 2.707031 -7.195312 2.96875 -6.0625 C 3.226562 -4.9375 3.738281 -3.96875 4.5 -3.15625 C 5.375 -2.226562 6.476562 -1.554688 7.8125 -1.140625 C 9.144531 -0.734375 10.546875 -0.5625 12.015625 -0.625 C 13.492188 -0.695312 14.894531 -0.976562 16.21875 -1.46875 C 17.539062 -1.957031 18.625 -2.613281 19.46875 -3.4375 C 20.375 -4.332031 20.925781 -5.269531 21.125 -6.25 C 21.332031 -7.238281 21.25 -8.195312 20.875 -9.125 C 20.507812 -10.050781 19.910156 -10.878906 19.078125 -11.609375 C 18.242188 -12.347656 17.253906 -12.921875 16.109375 -13.328125 C 14.992188 -13.742188 13.757812 -14.066406 12.40625 -14.296875 C 11.0625 -14.523438 9.707031 -14.78125 8.34375 -15.0625 C 6.976562 -15.351562 5.703125 -15.765625 4.515625 -16.296875 C 3.328125 -16.828125 2.328125 -17.585938 1.515625 -18.578125 C 0.671875 -19.609375 0.179688 -20.789062 0.046875 -22.125 C -0.0859375 -23.46875 0.140625 -24.710938 0.734375 -25.859375 C 1.222656 -26.835938 1.910156 -27.640625 2.796875 -28.265625 C 3.679688 -28.890625 4.660156 -29.378906 5.734375 -29.734375 C 6.816406 -30.085938 7.925781 -30.332031 9.0625 -30.46875 C 10.195312 -30.601562 11.253906 -30.671875 12.234375 -30.671875 C 13.347656 -30.671875 14.460938 -30.566406 15.578125 -30.359375 C 16.703125 -30.160156 17.769531 -29.832031 18.78125 -29.375 C 19.425781 -29.070312 20.097656 -28.660156 20.796875 -28.140625 C 21.492188 -27.617188 22.070312 -27.023438 22.53125 -26.359375 C 23 -25.691406 23.234375 -24.960938 23.234375 -24.171875 C 23.234375 -23.242188 22.929688 -22.472656 22.328125 -21.859375 C 21.734375 -21.242188 20.863281 -20.953125 19.71875 -20.984375 C 20.125 -22.128906 20.238281 -23.21875 20.0625 -24.25 C 19.882812 -25.289062 19.484375 -26.207031 18.859375 -27 C 18.171875 -27.925781 17.238281 -28.632812 16.0625 -29.125 C 14.894531 -29.613281 13.632812 -29.90625 12.28125 -30 C 10.9375 -30.09375 9.640625 -29.992188 8.390625 -29.703125 C 7.460938 -29.503906 6.554688 -29.164062 5.671875 -28.6875 C 4.785156 -28.21875 4.035156 -27.613281 3.421875 -26.875 C 2.804688 -26.132812 2.441406 -25.25 2.328125 -24.21875 C 2.222656 -23.070312 2.46875 -22.125 3.0625 -21.375 C 3.664062 -20.625 4.460938 -20.023438 5.453125 -19.578125 C 6.453125 -19.128906 7.472656 -18.765625 8.515625 -18.484375 C 9.796875 -18.191406 11.171875 -17.925781 12.640625 -17.6875 C 14.109375 -17.457031 15.546875 -17.132812 16.953125 -16.71875 C 18.359375 -16.3125 19.578125 -15.6875 20.609375 -14.84375 C 21.617188 -14.03125 22.382812 -13.070312 22.90625 -11.96875 C 23.425781 -10.863281 23.671875 -9.71875 23.640625 -8.53125 C 23.617188 -7.34375 23.320312 -6.203125 22.75 -5.109375 C 22.175781 -4.023438 21.316406 -3.097656 20.171875 -2.328125 C 18.828125 -1.429688 17.289062 -0.816406 15.5625 -0.484375 C 13.832031 -0.160156 12.21875 0 10.71875 0 Z M 10.71875 0 "/></g></g></g><g fill="#dad5f7" fill-opacity="1"><g transform="translate(237.937709, 32.458822)"><g><path d="M -3.03125 -20.40625 C -1.988281 -20.40625 -1.03125 -20.65625 -0.15625 -21.15625 C 0.707031 -21.664062 1.40625 -22.34375 1.9375 -23.1875 C 2.46875 -24.039062 2.734375 -24.957031 2.734375 -25.9375 L 3.390625 -25.9375 L 3.390625 -20.40625 L 7.328125 -20.40625 L 7.328125 -19.796875 L 3.390625 -19.796875 L 3.390625 -4.375 C 3.390625 -3.414062 3.597656 -2.6875 4.015625 -2.1875 C 4.441406 -1.6875 4.972656 -1.453125 5.609375 -1.484375 C 6.253906 -1.523438 6.90625 -1.875 7.5625 -2.53125 L 8.015625 -2.09375 C 7.472656 -1.539062 6.796875 -1.050781 5.984375 -0.625 C 5.179688 -0.207031 4.382812 0 3.59375 0 C 2.914062 0 2.34375 -0.128906 1.875 -0.390625 C 1.414062 -0.648438 1.035156 -1 0.734375 -1.4375 C 0.429688 -1.925781 0.234375 -2.460938 0.140625 -3.046875 C 0.046875 -3.628906 0 -4.207031 0 -4.78125 L 0 -19.796875 L -3.03125 -19.796875 Z M -3.03125 -20.40625 "/></g></g></g><g fill="#dad5f7" fill-opacity="1"><g transform="translate(248.366689, 32.458822)"><g><path d="M 18.734375 0 L 15.34375 0 L 15.34375 -1.765625 C 14.082031 -1.242188 12.617188 -0.816406 10.953125 -0.484375 C 9.296875 -0.160156 7.703125 0 6.171875 0 C 5.140625 0 4.148438 -0.109375 3.203125 -0.328125 C 2.265625 -0.546875 1.492188 -0.972656 0.890625 -1.609375 C 0.296875 -2.253906 0 -3.234375 0 -4.546875 L 0 -20.453125 L 3.390625 -20.453125 L 3.390625 -4.546875 C 3.390625 -3.285156 3.679688 -2.375 4.265625 -1.8125 C 4.859375 -1.257812 5.578125 -0.914062 6.421875 -0.78125 C 7.316406 -0.644531 8.3125 -0.691406 9.40625 -0.921875 C 10.5 -1.148438 11.566406 -1.492188 12.609375 -1.953125 C 13.660156 -2.421875 14.570312 -2.929688 15.34375 -3.484375 L 15.34375 -20.453125 L 18.734375 -20.453125 Z M 18.734375 0 "/></g></g></g><g fill="#dad5f7" fill-opacity="1"><g transform="translate(271.146866, 32.458822)"><g><path d="M 15.34375 -30.671875 L 18.734375 -30.671875 L 18.734375 0 L 15.34375 0 L 15.34375 -2.9375 C 14.5 -2.070312 13.507812 -1.363281 12.375 -0.8125 C 11.238281 -0.269531 10.046875 0 8.796875 0 C 6.890625 0 5.28125 -0.453125 3.96875 -1.359375 C 2.65625 -2.273438 1.664062 -3.488281 1 -5 C 0.332031 -6.519531 0 -8.164062 0 -9.9375 C 0 -11.269531 0.207031 -12.5625 0.625 -13.8125 C 1.050781 -15.070312 1.671875 -16.195312 2.484375 -17.1875 C 3.304688 -18.1875 4.289062 -18.976562 5.4375 -19.5625 C 6.582031 -20.15625 7.878906 -20.453125 9.328125 -20.453125 C 11.785156 -20.453125 13.789062 -19.566406 15.34375 -17.796875 Z M 15.34375 -4.828125 L 15.34375 -15.5 C 14.90625 -16.539062 14.269531 -17.488281 13.4375 -18.34375 C 12.601562 -19.207031 11.570312 -19.675781 10.34375 -19.75 C 9.125 -19.832031 8.066406 -19.585938 7.171875 -19.015625 C 6.285156 -18.441406 5.5625 -17.648438 5 -16.640625 C 4.445312 -15.640625 4.039062 -14.550781 3.78125 -13.375 C 3.519531 -12.207031 3.390625 -11.0625 3.390625 -9.9375 C 3.390625 -9.039062 3.503906 -8.0625 3.734375 -7 C 3.972656 -5.9375 4.347656 -4.925781 4.859375 -3.96875 C 5.378906 -3.007812 6.054688 -2.238281 6.890625 -1.65625 C 7.722656 -1.070312 8.726562 -0.789062 9.90625 -0.8125 C 11.125 -0.875 12.191406 -1.304688 13.109375 -2.109375 C 14.023438 -2.910156 14.769531 -3.816406 15.34375 -4.828125 Z M 15.34375 -4.828125 "/></g></g></g><g fill="#dad5f7" fill-opacity="1"><g transform="translate(293.927015, 32.458822)"><g><path d="M 0 -20.453125 L 3.390625 -20.453125 L 3.390625 0 L 0 0 Z M 1.71875 -24.75 C 2.175781 -24.75 2.566406 -24.582031 2.890625 -24.25 C 3.222656 -23.925781 3.390625 -23.535156 3.390625 -23.078125 C 3.390625 -22.609375 3.222656 -22.203125 2.890625 -21.859375 C 2.566406 -21.523438 2.175781 -21.359375 1.71875 -21.359375 C 1.25 -21.359375 0.84375 -21.523438 0.5 -21.859375 C 0.164062 -22.203125 0 -22.609375 0 -23.078125 C 0 -23.535156 0.164062 -23.925781 0.5 -24.25 C 0.84375 -24.582031 1.25 -24.75 1.71875 -24.75 Z M 1.71875 -24.75 "/></g></g></g><g fill="#dad5f7" fill-opacity="1"><g transform="translate(301.370456, 32.458822)"><g><path d="M 9.734375 -20.453125 C 11.535156 -20.453125 13.171875 -19.992188 14.640625 -19.078125 C 16.117188 -18.171875 17.300781 -16.9375 18.1875 -15.375 C 19.070312 -13.820312 19.515625 -12.101562 19.515625 -10.21875 C 19.515625 -8.34375 19.070312 -6.632812 18.1875 -5.09375 C 17.300781 -3.550781 16.117188 -2.316406 14.640625 -1.390625 C 13.171875 -0.460938 11.535156 0 9.734375 0 C 7.960938 0 6.332031 -0.460938 4.84375 -1.390625 C 3.363281 -2.316406 2.1875 -3.550781 1.3125 -5.09375 C 0.4375 -6.632812 0 -8.34375 0 -10.21875 C 0 -12.101562 0.4375 -13.820312 1.3125 -15.375 C 2.1875 -16.9375 3.363281 -18.171875 4.84375 -19.078125 C 6.332031 -19.992188 7.960938 -20.453125 9.734375 -20.453125 Z M 9.734375 -19.796875 C 8.585938 -19.796875 7.53125 -19.363281 6.5625 -18.5 C 5.59375 -17.644531 4.820312 -16.492188 4.25 -15.046875 C 3.675781 -13.609375 3.390625 -12 3.390625 -10.21875 C 3.390625 -8.445312 3.675781 -6.832031 4.25 -5.375 C 4.820312 -3.914062 5.59375 -2.753906 6.5625 -1.890625 C 7.53125 -1.035156 8.585938 -0.609375 9.734375 -0.609375 C 10.910156 -0.609375 11.984375 -1.035156 12.953125 -1.890625 C 13.921875 -2.753906 14.6875 -3.914062 15.25 -5.375 C 15.820312 -6.832031 16.109375 -8.445312 16.109375 -10.21875 C 16.109375 -12 15.820312 -13.609375 15.25 -15.046875 C 14.6875 -16.492188 13.921875 -17.644531 12.953125 -18.5 C 11.984375 -19.363281 10.910156 -19.796875 9.734375 -19.796875 Z M 9.734375 -19.796875 "/></g></g></g></g></g><g transform="matrix(1, 0, 0, 1, 46, 258)"><g clip-path="url(#abdc9b340d)"><g fill="#dad5f7" fill-opacity="1"><g transform="translate(1.15544, 9.75183)"><g><path d="M 5.515625 -2.171875 L 2.34375 -2.171875 L 1.453125 0 L 0.359375 0 L 3.96875 -8.59375 L 4.03125 -8.59375 L 7.640625 0 L 6.359375 0 Z M 5.125 -3.125 L 3.953125 -6.140625 L 2.734375 -3.125 Z M 5.125 -3.125 "/></g></g></g><g fill="#dad5f7" fill-opacity="1"><g transform="translate(12.389077, 9.75183)"><g><path d="M 6.078125 -8.25 L 6.078125 -7.1875 L 2.296875 -7.1875 L 2.296875 -4.5625 L 5.609375 -4.5625 L 5.609375 -3.5 L 2.296875 -3.5 L 2.296875 0 L 1.1875 0 L 1.1875 -8.25 Z M 6.078125 -8.25 "/></g></g></g><g fill="#dad5f7" fill-opacity="1"><g transform="translate(22.345384, 9.75183)"><g><path d="M 5.71875 0 L 3.78125 -3.046875 C 3.726562 -3.035156 3.640625 -3.03125 3.515625 -3.03125 L 2.296875 -3.03125 L 2.296875 0 L 1.1875 0 L 1.1875 -8.25 L 3.390625 -8.25 C 3.953125 -8.25 4.453125 -8.148438 4.890625 -7.953125 C 5.335938 -7.753906 5.6875 -7.460938 5.9375 -7.078125 C 6.1875 -6.691406 6.3125 -6.226562 6.3125 -5.6875 C 6.3125 -5.175781 6.195312 -4.707031 5.96875 -4.28125 C 5.75 -3.863281 5.40625 -3.539062 4.9375 -3.3125 L 7.015625 0 Z M 3.484375 -4.109375 C 4.078125 -4.109375 4.503906 -4.265625 4.765625 -4.578125 C 5.035156 -4.890625 5.171875 -5.242188 5.171875 -5.640625 C 5.171875 -5.890625 5.113281 -6.128906 5 -6.359375 C 4.894531 -6.597656 4.722656 -6.796875 4.484375 -6.953125 C 4.242188 -7.109375 3.9375 -7.1875 3.5625 -7.1875 L 2.296875 -7.1875 L 2.296875 -4.109375 Z M 3.484375 -4.109375 "/></g></g></g><g fill="#dad5f7" fill-opacity="1"><g transform="translate(33.111426, 9.75183)"><g><path d="M 2.296875 -8.25 L 2.296875 0 L 1.1875 0 L 1.1875 -8.25 Z M 2.296875 -8.25 "/></g></g></g><g fill="#dad5f7" fill-opacity="1"><g transform="translate(39.828776, 9.75183)"><g><path d="M 7.25 -0.609375 C 6.976562 -0.441406 6.640625 -0.28125 6.234375 -0.125 C 5.828125 0.0195312 5.382812 0.09375 4.90625 0.09375 C 4.0625 0.09375 3.316406 -0.09375 2.671875 -0.46875 C 2.023438 -0.84375 1.53125 -1.34375 1.1875 -1.96875 C 0.84375 -2.601562 0.671875 -3.300781 0.671875 -4.0625 C 0.671875 -4.875 0.84375 -5.601562 1.1875 -6.25 C 1.539062 -6.90625 2.023438 -7.414062 2.640625 -7.78125 C 3.265625 -8.15625 3.96875 -8.34375 4.75 -8.34375 C 5.21875 -8.34375 5.648438 -8.28125 6.046875 -8.15625 C 6.453125 -8.03125 6.816406 -7.867188 7.140625 -7.671875 L 6.703125 -6.640625 C 6.066406 -7.066406 5.429688 -7.28125 4.796875 -7.28125 C 4.253906 -7.28125 3.757812 -7.140625 3.3125 -6.859375 C 2.863281 -6.578125 2.503906 -6.191406 2.234375 -5.703125 C 1.960938 -5.222656 1.828125 -4.695312 1.828125 -4.125 C 1.828125 -3.53125 1.945312 -2.992188 2.1875 -2.515625 C 2.4375 -2.035156 2.789062 -1.660156 3.25 -1.390625 C 3.71875 -1.117188 4.25 -0.984375 4.84375 -0.984375 C 5.582031 -0.984375 6.226562 -1.191406 6.78125 -1.609375 Z M 7.25 -0.609375 "/></g></g></g><g fill="#dad5f7" fill-opacity="1"><g transform="translate(50.982581, 9.75183)"><g><path d="M 5.515625 -2.171875 L 2.34375 -2.171875 L 1.453125 0 L 0.359375 0 L 3.96875 -8.59375 L 4.03125 -8.59375 L 7.640625 0 L 6.359375 0 Z M 5.125 -3.125 L 3.953125 -6.140625 L 2.734375 -3.125 Z M 5.125 -3.125 "/></g></g></g><g fill="#dad5f7" fill-opacity="1"><g transform="translate(62.216218, 9.75183)"><g><path d="M 8.375 -8.25 L 8.375 0.28125 L 8.34375 0.28125 L 2.28125 -5.875 L 2.296875 0 L 1.1875 0 L 1.1875 -8.5 L 1.25 -8.5 L 7.28125 -2.28125 L 7.265625 -8.25 Z M 8.375 -8.25 "/></g></g></g><g fill="#dad5f7" fill-opacity="1"><g transform="translate(75.012305, 9.75183)"><g/></g></g><g fill="#dad5f7" fill-opacity="1"><g transform="translate(81.85511, 9.75183)"><g><path d="M 7.75 -8.25 L 4.109375 0.390625 L 0.46875 -8.25 L 1.78125 -8.25 L 4.15625 -2.296875 L 6.4375 -8.25 Z M 7.75 -8.25 "/></g></g></g><g fill="#dad5f7" fill-opacity="1"><g transform="translate(93.294034, 9.75183)"><g><path d="M 2.296875 -8.25 L 2.296875 0 L 1.1875 0 L 1.1875 -8.25 Z M 2.296875 -8.25 "/></g></g></g><g fill="#dad5f7" fill-opacity="1"><g transform="translate(100.011385, 9.75183)"><g><path d="M 0.671875 -4.125 C 0.671875 -4.875 0.859375 -5.570312 1.234375 -6.21875 C 1.617188 -6.863281 2.128906 -7.378906 2.765625 -7.765625 C 3.410156 -8.148438 4.113281 -8.34375 4.875 -8.34375 C 5.632812 -8.34375 6.335938 -8.148438 6.984375 -7.765625 C 7.628906 -7.378906 8.144531 -6.863281 8.53125 -6.21875 C 8.914062 -5.570312 9.109375 -4.875 9.109375 -4.125 C 9.109375 -3.363281 8.914062 -2.65625 8.53125 -2 C 8.15625 -1.351562 7.640625 -0.84375 6.984375 -0.46875 C 6.335938 -0.09375 5.632812 0.09375 4.875 0.09375 C 4.113281 0.09375 3.410156 -0.09375 2.765625 -0.46875 C 2.117188 -0.84375 1.609375 -1.347656 1.234375 -1.984375 C 0.859375 -2.628906 0.671875 -3.34375 0.671875 -4.125 Z M 1.8125 -4.109375 C 1.8125 -3.546875 1.945312 -3.023438 2.21875 -2.546875 C 2.5 -2.066406 2.875 -1.6875 3.34375 -1.40625 C 3.820312 -1.125 4.34375 -0.984375 4.90625 -0.984375 C 5.46875 -0.984375 5.984375 -1.117188 6.453125 -1.390625 C 6.921875 -1.671875 7.289062 -2.050781 7.5625 -2.53125 C 7.832031 -3.019531 7.96875 -3.550781 7.96875 -4.125 C 7.96875 -4.6875 7.828125 -5.210938 7.546875 -5.703125 C 7.273438 -6.191406 6.898438 -6.578125 6.421875 -6.859375 C 5.953125 -7.140625 5.4375 -7.28125 4.875 -7.28125 C 4.3125 -7.28125 3.796875 -7.132812 3.328125 -6.84375 C 2.859375 -6.5625 2.488281 -6.175781 2.21875 -5.6875 C 1.945312 -5.207031 1.8125 -4.679688 1.8125 -4.109375 Z M 1.8125 -4.109375 "/></g></g></g><g fill="#dad5f7" fill-opacity="1"><g transform="translate(113.024157, 9.75183)"><g><path d="M 2.296875 -8.25 L 2.296875 -1.078125 L 6.484375 -1.078125 L 6.484375 0 L 1.1875 0 L 1.1875 -8.25 Z M 2.296875 -8.25 "/></g></g></g><g fill="#dad5f7" fill-opacity="1"><g transform="translate(123.356814, 9.75183)"><g><path d="M 6.546875 -8.25 L 6.546875 -7.1875 L 2.296875 -7.1875 L 2.296875 -4.671875 L 6.09375 -4.671875 L 6.09375 -3.609375 L 2.296875 -3.609375 L 2.296875 -1.078125 L 6.703125 -1.078125 L 6.703125 0 L 1.1875 0 L 1.1875 -8.25 Z M 6.546875 -8.25 "/></g></g></g><g fill="#dad5f7" fill-opacity="1"><g transform="translate(134.043023, 9.75183)"><g><path d="M 6.0625 -8.25 L 6.0625 -7.1875 L 3.84375 -7.1875 L 3.84375 0 L 2.734375 0 L 2.734375 -7.1875 L 0.578125 -7.1875 L 0.578125 -8.25 Z M 6.0625 -8.25 "/></g></g></g><g fill="#dad5f7" fill-opacity="1"><g transform="translate(143.919498, 9.75183)"><g/></g></g><g fill="#dad5f7" fill-opacity="1"><g transform="translate(150.762303, 9.75183)"><g><path d="M 7.25 -0.609375 C 6.976562 -0.441406 6.640625 -0.28125 6.234375 -0.125 C 5.828125 0.0195312 5.382812 0.09375 4.90625 0.09375 C 4.0625 0.09375 3.316406 -0.09375 2.671875 -0.46875 C 2.023438 -0.84375 1.53125 -1.34375 1.1875 -1.96875 C 0.84375 -2.601562 0.671875 -3.300781 0.671875 -4.0625 C 0.671875 -4.875 0.84375 -5.601562 1.1875 -6.25 C 1.539062 -6.90625 2.023438 -7.414062 2.640625 -7.78125 C 3.265625 -8.15625 3.96875 -8.34375 4.75 -8.34375 C 5.21875 -8.34375 5.648438 -8.28125 6.046875 -8.15625 C 6.453125 -8.03125 6.816406 -7.867188 7.140625 -7.671875 L 6.703125 -6.640625 C 6.066406 -7.066406 5.429688 -7.28125 4.796875 -7.28125 C 4.253906 -7.28125 3.757812 -7.140625 3.3125 -6.859375 C 2.863281 -6.578125 2.503906 -6.191406 2.234375 -5.703125 C 1.960938 -5.222656 1.828125 -4.695312 1.828125 -4.125 C 1.828125 -3.53125 1.945312 -2.992188 2.1875 -2.515625 C 2.4375 -2.035156 2.789062 -1.660156 3.25 -1.390625 C 3.71875 -1.117188 4.25 -0.984375 4.84375 -0.984375 C 5.582031 -0.984375 6.226562 -1.191406 6.78125 -1.609375 Z M 7.25 -0.609375 "/></g></g></g><g fill="#dad5f7" fill-opacity="1"><g transform="translate(161.916108, 9.75183)"><g><path d="M 5.515625 -2.171875 L 2.34375 -2.171875 L 1.453125 0 L 0.359375 0 L 3.96875 -8.59375 L 4.03125 -8.59375 L 7.640625 0 L 6.359375 0 Z M 5.125 -3.125 L 3.953125 -6.140625 L 2.734375 -3.125 Z M 5.125 -3.125 "/></g></g></g><g fill="#dad5f7" fill-opacity="1"><g transform="translate(173.149745, 9.75183)"><g><path d="M 5.71875 0 L 3.78125 -3.046875 C 3.726562 -3.035156 3.640625 -3.03125 3.515625 -3.03125 L 2.296875 -3.03125 L 2.296875 0 L 1.1875 0 L 1.1875 -8.25 L 3.390625 -8.25 C 3.953125 -8.25 4.453125 -8.148438 4.890625 -7.953125 C 5.335938 -7.753906 5.6875 -7.460938 5.9375 -7.078125 C 6.1875 -6.691406 6.3125 -6.226562 6.3125 -5.6875 C 6.3125 -5.175781 6.195312 -4.707031 5.96875 -4.28125 C 5.75 -3.863281 5.40625 -3.539062 4.9375 -3.3125 L 7.015625 0 Z M 3.484375 -4.109375 C 4.078125 -4.109375 4.503906 -4.265625 4.765625 -4.578125 C 5.035156 -4.890625 5.171875 -5.242188 5.171875 -5.640625 C 5.171875 -5.890625 5.113281 -6.128906 5 -6.359375 C 4.894531 -6.597656 4.722656 -6.796875 4.484375 -6.953125 C 4.242188 -7.109375 3.9375 -7.1875 3.5625 -7.1875 L 2.296875 -7.1875 L 2.296875 -4.109375 Z M 3.484375 -4.109375 "/></g></g></g><g fill="#dad5f7" fill-opacity="1"><g transform="translate(183.915787, 9.75183)"><g><path d="M 6.546875 -8.25 L 6.546875 -7.1875 L 2.296875 -7.1875 L 2.296875 -4.671875 L 6.09375 -4.671875 L 6.09375 -3.609375 L 2.296875 -3.609375 L 2.296875 -1.078125 L 6.703125 -1.078125 L 6.703125 0 L 1.1875 0 L 1.1875 -8.25 Z M 6.546875 -8.25 "/></g></g></g><g fill="#dad5f7" fill-opacity="1"><g transform="translate(194.601997, 9.75183)"><g/></g></g><g fill="#dad5f7" fill-opacity="1"><g transform="translate(201.444802, 9.75183)"><g><path d="M 5.515625 -2.171875 L 2.34375 -2.171875 L 1.453125 0 L 0.359375 0 L 3.96875 -8.59375 L 4.03125 -8.59375 L 7.640625 0 L 6.359375 0 Z M 5.125 -3.125 L 3.953125 -6.140625 L 2.734375 -3.125 Z M 5.125 -3.125 "/></g></g></g><g fill="#dad5f7" fill-opacity="1"><g transform="translate(212.678439, 9.75183)"><g><path d="M 6.0625 -8.25 L 6.0625 -7.1875 L 3.84375 -7.1875 L 3.84375 0 L 2.734375 0 L 2.734375 -7.1875 L 0.578125 -7.1875 L 0.578125 -8.25 Z M 6.0625 -8.25 "/></g></g></g><g fill="#dad5f7" fill-opacity="1"><g transform="translate(222.554914, 9.75183)"><g><path d="M 5.515625 -2.171875 L 2.34375 -2.171875 L 1.453125 0 L 0.359375 0 L 3.96875 -8.59375 L 4.03125 -8.59375 L 7.640625 0 L 6.359375 0 Z M 5.125 -3.125 L 3.953125 -6.140625 L 2.734375 -3.125 Z M 5.125 -3.125 "/></g></g></g><g fill="#dad5f7" fill-opacity="1"><g transform="translate(233.788551, 9.75183)"><g><path d="M 2.296875 -8.25 L 2.296875 -1.078125 L 6.484375 -1.078125 L 6.484375 0 L 1.1875 0 L 1.1875 -8.25 Z M 2.296875 -8.25 "/></g></g></g><g fill="#dad5f7" fill-opacity="1"><g transform="translate(244.121207, 9.75183)"><g><path d="M 2.296875 -8.25 L 2.296875 0 L 1.1875 0 L 1.1875 -8.25 Z M 2.296875 -8.25 "/></g></g></g><g fill="#dad5f7" fill-opacity="1"><g transform="translate(250.838572, 9.75183)"><g><path d="M 6.546875 -8.25 L 6.546875 -7.1875 L 2.296875 -7.1875 L 2.296875 -4.671875 L 6.09375 -4.671875 L 6.09375 -3.609375 L 2.296875 -3.609375 L 2.296875 -1.078125 L 6.703125 -1.078125 L 6.703125 0 L 1.1875 0 L 1.1875 -8.25 Z M 6.546875 -8.25 "/></g></g></g><g fill="#dad5f7" fill-opacity="1"><g transform="translate(261.524753, 9.75183)"><g><path d="M 5.71875 0 L 3.78125 -3.046875 C 3.726562 -3.035156 3.640625 -3.03125 3.515625 -3.03125 L 2.296875 -3.03125 L 2.296875 0 L 1.1875 0 L 1.1875 -8.25 L 3.390625 -8.25 C 3.953125 -8.25 4.453125 -8.148438 4.890625 -7.953125 C 5.335938 -7.753906 5.6875 -7.460938 5.9375 -7.078125 C 6.1875 -6.691406 6.3125 -6.226562 6.3125 -5.6875 C 6.3125 -5.175781 6.195312 -4.707031 5.96875 -4.28125 C 5.75 -3.863281 5.40625 -3.539062 4.9375 -3.3125 L 7.015625 0 Z M 3.484375 -4.109375 C 4.078125 -4.109375 4.503906 -4.265625 4.765625 -4.578125 C 5.035156 -4.890625 5.171875 -5.242188 5.171875 -5.640625 C 5.171875 -5.890625 5.113281 -6.128906 5 -6.359375 C 4.894531 -6.597656 4.722656 -6.796875 4.484375 -6.953125 C 4.242188 -7.109375 3.9375 -7.1875 3.5625 -7.1875 L 2.296875 -7.1875 L 2.296875 -4.109375 Z M 3.484375 -4.109375 "/></g></g></g></g></g><g clip-path="url(#3f7fc833df)"><g clip-path="url(#c238156ee8)"><path fill="url(#2055c04872)" d="M 144.429688 74.714844 L 144.429688 199.214844 L 230.585938 199.214844 L 230.585938 74.714844 Z M 144.429688 74.714844 " fill-rule="nonzero"/></g></g></svg>